Patient4_TMGait_0pt6_02_left_06_EMG.mot
version=1
nRows=37
nColumns=33
inDegrees=no
endheader
time	1LAddLong	2LGlutMax	3LGlutMed	4LIliopsoas	5LSemiMemb	6LBicFemLong	7LRecFem	8LVastMed	9LVastLat	10LGasMed	11LTibAnt	12lTibPost	13LPeroneusLong	14LSol	15LExtDigLong	16LFlexDigLong	17RAddLong	18RGlutMax	19RGlutMed	20RIliopsoas	21RSemiMemb	22RBicFemLong	23RRecFem	24RVastMed	25RVastLat	26RGasMed	27RTibAnt	28RTibPost	29RPeroneusLong	30RSol	31RExtDigLong	32RFlexDigLong
8.085	0.000763	-0.103	-0.15762	0.005493	-0.003662	-0.016479	-0.098419	0.006256	-0.023193	-0.077057	0.024872	0.00885	0.001984	-0.011597	0.0177	-0.01358	0.077972	-0.17319	-0.20309	0.000458	0.088654	-0.94803	-0.093689	0.014954	0.090637	0.002594	-0.19073	-0.008545	0.10757	-0.21622	-0.004272	-0.002899
8.086	-0.001678	-0.11414	-0.1355	0.032349	-0.001221	-0.030823	-0.11047	0.000153	-0.009766	-0.022278	0.019989	0.020294	0.000305	0.1091	0.026703	-0.03952	0.070038	-0.10071	-0.38361	0.00824	0.16724	-0.45151	-0.27466	0.32715	-0.22247	0.005188	-0.32227	-0.001526	0.14404	-0.18997	0.001984	-0.006256
8.087	-0.004425	-0.099792	-0.12283	0.040741	-0.003662	-0.024872	-0.10239	0.006409	-0.016174	-0.019684	0.013885	0.020905	0.033875	0.080872	0.038605	-0.67429	0.062866	-0.13123	-0.48889	0.007935	0.40329	-0.345	-0.42374	0.52597	-0.43915	0.007629	-0.019226	-0.002594	0.26504	-0.1651	0.004578	-0.001984
8.088	0.000916	-0.10819	-0.098877	0.015869	0.017395	-0.082245	-0.11444	0.001831	-0.02121	0.11719	0.017548	0.023346	0.0354	0.084229	0.044556	0.30716	0.050659	-0.19165	-0.64484	-0.023804	0.52734	-0.28641	-0.5542	0.48431	-0.69946	0.00351	0.46341	0.001678	0.18616	-0.13397	-0.006714	-0.002136
8.089	-0.003357	-0.10712	-0.084229	0.013428	0.024261	-0.042725	-0.090027	0.000916	-0.024261	0.24399	0.020447	0.033722	-0.019379	0.088654	0.027771	0.99792	0.007935	-0.28336	-0.22964	-0.057068	0.13504	-0.09552	-0.47226	0.59006	-0.79895	0.002594	0.48813	-0.007477	0.043182	-0.048676	0.002136	-0.008392
8.09	-0.003357	-0.087433	-0.076599	-0.002441	0.015564	-0.005798	-0.091705	0.000305	-0.033569	0.46539	0.024261	0.034485	-0.082855	0.13672	0.0177	-0.79895	-0.022125	-0.25848	0.012512	-0.082703	0.037079	-0.004272	-0.17777	0.40543	-0.7222	0.001221	-0.00061	0.00061	0.025787	0.076599	-0.00412	0.000763
8.091	-0.00061	-0.043793	-0.062866	-0.006409	-0.001984	-0.017853	-0.089264	-0.004425	-0.035095	0.89447	0.023651	0.031281	-0.11902	0.12817	0.018311	-0.000916	-0.092316	-0.14099	0.60333	-0.058746	0.086823	-0.037079	-0.16693	0.39078	-0.034485	-0.006104	-0.17105	-0.006561	-0.019531	0.18478	-0.003357	-0.011444
8.092	0.005188	-0.083618	-0.035553	0.004883	-0.010223	0.029755	-0.091858	0.00412	-0.036774	0.93506	0.001068	0.036163	-0.11887	0.030823	0.018463	0.12039	-0.1387	-0.18265	0.47073	-0.056915	-0.25757	-0.039825	-0.083618	0.1004	0.18921	-0.002289	-0.31616	0.001068	0.088501	0.22324	-0.001526	-0.01358
8.093	-0.001678	-0.13382	-0.031586	0.010834	-0.02243	0.031433	-0.080566	-0.000763	-0.037231	0.27924	0.001068	0.042572	-0.011902	-0.02182	-0.019684	0.2652	-0.084839	-0.13809	0.14801	-0.016022	0.1506	-0.005188	-0.042114	-0.11963	0.053253	0.005493	-0.53024	-0.006714	0.17014	0.22324	-0.003662	-0.011292
8.094	-0.001526	-0.10986	-0.010376	0.015564	0.031281	0.00061	-0.055847	-0.001984	-0.040588	-0.10284	-0.001373	0.03067	0.050507	-0.17014	-0.015717	0.030518	-0.007324	0.008392	0.71838	-0.055237	0.58624	-0.045624	0.049438	-0.32898	-0.26489	-0.00061	-0.65521	-0.000916	0.14099	0.1918	0.000305	-0.021362
8.095	0.001984	-0.072784	0.003052	0.010223	0.026093	0.013885	-0.067444	-0.004578	-0.036316	-0.24872	-0.001831	0.039063	0.06073	-0.16541	-0.029602	0.058441	0.057983	0.20126	0.51804	-0.025177	0.36087	-0.14816	0.12711	-0.2121	0.021973	0.002594	-0.52277	-0.000916	0.095062	0.19318	-0.001068	-0.01236
8.096	-0.001068	-0.036926	0.009766	-0.01297	0.030212	0.008545	-0.075226	-0.00412	-0.03479	-0.42084	-0.004425	0.01297	0.084686	0.23865	-0.015717	-0.063629	0.064697	0.37399	0.046234	-0.017395	0.099792	-0.054932	0.02182	0.033417	0.31403	-0.002441	-0.33569	-0.001373	0.10788	0.24811	-0.004578	-0.010681
8.097	0.00412	-0.032959	0.036926	-0.003357	0.030212	0.023804	-0.069275	-0.001678	-0.03952	0.010529	-0.002136	0.042419	0.11734	0.44571	-0.032654	-0.11459	0.029907	0.35065	0.01236	-0.070038	0.29312	0.036011	0.10742	0.053864	0.053864	0.001068	-0.18188	-0.000153	0.071259	0.18723	-0.004578	-0.014648
8.098	0.001526	-0.025177	0.050812	0.005798	0.026245	0.044556	-0.08316	-0.00061	-0.045166	-0.13367	-0.000153	-0.007172	0.10361	0.33676	-0.068359	-0.43655	-0.016937	0.26276	-0.168	-0.037384	0.29175	0.18951	0.11765	-0.026093	-0.21668	-0.003662	-0.045471	0.000458	0.037842	0.13199	0.000305	-0.014954
8.099	-0.007324	-0.002136	0.065155	0.005646	0.002441	0.030365	-0.084991	-0.009766	-0.041351	-0.80643	0.008392	0.018921	0.042725	0.054321	-0.027771	0.2092	-0.051727	0.13641	-0.14282	0.033264	0.13351	0.24628	-0.1709	-0.22446	-0.45487	0.001831	-0.004578	0.002136	0.093231	0.052185	-0.001984	-0.002289
8.1	0.00473	-0.014648	0.074463	0.007935	0.003357	0.022583	-0.058594	-0.002899	-0.046692	-0.59601	0.009613	0.017548	0.017548	0.003967	-0.002441	-0.35782	-0.10162	0.068207	-0.23315	0.039825	0.055084	0.48019	-0.49286	-0.44983	-0.41412	-0.00824	0.032806	0	0.16998	-0.001373	-0.002441	-0.001678
8.101	-0.001831	-0.045624	0.098419	0.00351	0.026703	0.010681	-0.08316	0.006409	-0.05661	-0.30701	0.034027	-0.002136	-0.056458	-0.092621	-0.002899	-0.15793	-0.11749	0.041199	-0.29602	0.016479	-0.12131	0.68954	-0.41702	-0.33127	-0.29526	-0.00412	0.085449	0.004425	0.22812	0.010529	0.002441	-0.00351
8.102	-0.004578	-0.045929	0.11322	-0.001526	0.018616	0.003204	-0.049591	-0.000305	-0.066376	-0.077057	0.032501	0.16922	-0.14481	-0.047913	0.022888	0.5629	-0.12833	-0.071106	-0.31097	-0.034637	-0.21103	0.62607	-0.54962	-0.37109	-0.026093	-0.006104	0.13458	0	0.25742	0.033875	-0.005951	0.000916
8.103	-0.007172	-0.025024	0.14221	-0.010376	0.007629	0.016785	-0.028839	0.002594	-0.0737	-0.037231	0.018463	-0.1355	-0.27115	0.08255	0.021362	-0.099487	-0.10483	-0.077667	-0.24628	-0.005341	-0.19043	0.42084	-0.46158	-0.69199	0.1178	-0.001221	0.10483	-0.000916	-0.004425	0.018921	0.000458	-0.00946
8.104	-0.006866	0.000153	0.159	-0.018158	-0.006256	0.038757	-0.016632	0.004272	-0.076599	-0.18387	-0.000916	-0.045929	-0.19836	0.22522	0.005341	-0.25528	-0.061646	0.042725	-0.12375	0.010376	-0.09491	0.29175	-0.28122	-0.47989	0.38437	-0.00473	0.10056	0.005188	-0.32181	-0.001068	-0.006409	-0.011902
8.105	-0.01358	-0.02121	0.17029	-0.003662	-0.007782	0.050812	-0.007782	-0.005493	-0.069885	-0.31387	-0.018463	0.007324	-0.089111	0.47501	-0.016785	0.47318	-0.004272	0.009308	0.13534	0.05661	0.14618	0.30319	-0.31952	-0.14328	0.39673	-0.005951	0.10696	0.00061	-0.28305	0.034485	0.002899	-0.012817
8.106	-0.006561	-0.000305	0.17838	0.014954	-0.007782	0.028229	0.019836	0.005035	-0.075073	-0.022125	-0.019379	-0.14999	0.14023	0.69427	-0.052032	1.0024	0.064392	-0.015564	0.54962	0.041656	0.13748	0.16174	-0.20416	-0.087433	0.15106	-0.003815	-0.014038	0.001526	-0.25284	0.007629	-0.007629	-0.005035
8.107	-0.004578	-0.005341	0.19424	0.046844	-0.00061	0.04364	0.020294	0.00473	-0.066528	0.21622	-0.010223	-0.064392	0.28793	1.129	-0.058746	-0.53329	0.11917	-0.17593	0.18219	-0.009003	0.22461	-0.03952	-0.003662	-0.16586	-0.16968	-0.008392	-0.068054	0.002594	-0.17853	-0.020294	-0.00061	-0.011902
8.108	-0.008545	-0.001678	0.21362	0.040894	-0.006866	0.026703	0.024719	0.002289	-0.058441	-0.063171	-0.006409	0.095673	0.20828	0.36255	-0.075073	0.065002	0.17654	-0.26504	-0.32074	-0.096283	0.32608	-0.12573	0.052795	-0.14511	-0.21713	-0.005493	-0.037994	0.002594	-0.1091	-0.021057	-0.006104	-0.012054
8.109	-0.010529	0.017395	0.24017	0.053864	0.001831	0.032654	0.043335	0.001068	-0.05127	0.091095	-0.000763	0.1619	0.085144	0.20294	-0.035095	0.36072	0.19073	-0.23834	-0.28625	-0.063171	0.25559	-0.18601	0.03006	-0.034332	-0.054321	-0.011292	0.011292	0.003052	-0.092773	-0.02182	-0.009766	-0.009155
8.11	-0.006866	0.034332	0.26108	0.036774	-0.009155	0.061798	0.050507	0.005951	-0.061493	0.53009	-0.000305	0.083923	0.004578	0.38818	0.030212	0.29984	0.10391	-0.075836	-0.20981	0.036774	-0.1181	-0.13886	-0.051422	0.15045	0.061646	-0.00885	0.073242	0.001984	-0.058136	-0.019836	-0.002136	-0.009613
8.111	-0.007172	0.027618	0.29266	-0.013123	-0.009766	0.056458	0.044098	0.00473	-0.056152	0.39825	-0.003357	-0.31784	0.033264	0.2356	0.035706	-0.13443	-0.001526	-0.11902	-0.21347	0.10407	-0.66589	0.39352	0.003357	0.39093	0.010834	-0.009003	0.14145	0.00412	-0.079041	-0.02655	-0.00061	-0.01236
8.112	-0.005951	0.054169	0.31632	-0.011292	-0.003052	0.037384	0.052643	0.003815	-0.059967	-0.00824	-0.002899	-0.002441	0.017395	-0.38895	0.002899	-0.10925	-0.016632	-0.19226	-0.36713	0.090942	-0.79117	0.69519	0.063934	0.4274	-0.052643	0.001373	0.21423	0.001526	-0.073395	-0.023651	0.001831	-0.018005
8.113	-0.001678	0.073242	0.31021	-0.015564	0.000305	0.008392	0.043488	0.00351	-0.039368	-0.38315	0.002136	-0.037689	-0.015869	-0.60059	-0.007324	-0.079346	-0.002747	-0.072327	-0.48065	0.032501	-0.26291	0.53116	0.08255	0.41367	-0.016174	-0.002594	0.37354	0.004578	-0.10544	-0.045929	-0.001678	-0.021667
8.114	0.000763	0.074463	0.31204	0.002136	0.024872	-0.029907	0.033875	-0.005341	-0.038757	-0.41428	-0.000763	-0.067291	-0.024414	-0.88913	0.017242	-0.070496	0.020142	0.071869	-0.39475	0.011292	0.50049	0.53726	0.19943	0.18845	-0.007019	0.001221	0.28442	0.010223	-0.12985	-0.096436	0.002441	-0.018921
8.115	0.005493	0.086975	0.33585	-0.004883	0.014496	0.025177	0.005188	-0.001831	-0.031738	-0.27023	0.001526	-0.076904	-0.032654	-0.82916	0.010376	-0.053711	0.000763	0.068817	-0.32562	0.014801	0.4512	0.55176	0.22293	-0.26291	-0.002441	-0.005341	0.28534	0.002899	-0.14862	-0.090179	-0.006104	-0.010529
8.116	-0.000458	0.11078	0.36423	-0.008392	-0.014954	0.0737	-0.012054	-0.002747	-0.026703	-0.14099	0.003815	-0.046844	-0.049133	-0.7048	0.01709	-0.058746	-0.043793	0.1149	-0.32806	-0.037689	0.26901	0.52994	0.22446	-0.51758	0.027008	-0.011292	0.30136	0.006714	-0.095978	-0.087128	0.001221	-0.010681
8.117	-0.000916	0.11063	0.38116	-0.018768	-0.017548	0.031891	-0.025177	-0.000305	-0.023499	-0.093384	0.004883	-0.035248	-0.03952	-0.64468	0.010529	-0.036316	-0.004272	0.10941	0.1326	-0.11017	0.19577	0.43152	0.21896	-0.63599	0.044403	-0.01297	0.33386	0.002136	-0.084534	-0.070801	-0.002594	0.004883
8.118	0.012665	0.13412	0.40985	-0.007324	0.000458	-0.001373	-0.032501	-0.004425	-0.022736	-0.008698	0.005951	-0.029449	-0.04425	-0.2507	0.015564	-0.032806	0.04425	0.054779	0.61325	-0.1593	0.18372	0.48798	0.48843	-0.43198	-0.12268	-0.002289	-0.048523	0.005951	-0.012512	-0.10254	0.00061	-0.001526
8.119	-0.001526	0.12497	0.42725	0.00946	0.004578	-0.019836	-0.014191	-0.002594	-0.026245	-0.026703	0.003815	-0.03067	-0.041199	-0.11536	0.015869	-0.027466	0.038605	-0.042419	0.53863	-0.045776	0.20721	0.84808	0.48859	-0.52551	-0.27893	0.005493	-0.69046	0.003357	0.11139	-0.10803	-0.004272	-0.002899
8.12	0.001221	0.13763	0.43289	0.018463	0.014648	-0.020142	-0.015106	-0.006409	-0.028534	-0.010986	0.018005	-0.033569	-0.048981	-0.11841	0.023651	-0.027771	-0.011292	-0.10025	-0.16174	0.072327	0.077515	0.78934	-0.034943	-0.32028	-0.23834	0.001984	-0.34759	0.000916	-0.004425	-0.11963	-0.002136	-0.002136
8.121	0.008087	0.11704	0.44586	0.02243	0.023499	-0.021515	-0.016327	0.002747	-0.023346	0.01709	0.02594	-0.041962	-0.041962	0.005646	0.029449	-0.022888	-0.029602	0.070953	-0.34653	0.087433	0.035858	0.44846	-0.40085	-0.29221	-0.19669	-0.007935	-0.059052	0.000153	-0.11002	-0.09201	-0.003357	0.003052
